<?xml version="1.0" encoding="utf-8"?>
<!-- Generator: Adobe Illustrator 23.0.2, SVG Export Plug-In . SVG Version: 6.00 Build 0)  -->
<svg version="1.1" id="Layer_1" xmlns="http://www.w3.org/2000/svg" xmlns:xlink="http://www.w3.org/1999/xlink" x="0px" y="0px"
	 width="286.963px" height="286.963px" viewBox="0 0 286.963 286.963" style="enable-background:new 0 0 286.963 286.963;"
	 xml:space="preserve">
<style type="text/css">
	.st0{fill:none;stroke:#5B5B5B;stroke-width:4;stroke-miterlimit:10;}
</style>
<path class="st0" d="M136.819,41.176L50.756,81.517c-4.739,2.207-7.822,8.182-7.807,13.41l0.279,98.497
	c0.015,5.17,2.999,9.871,7.672,12.083l85.55,40.509c3.578,1.694,10.216,1.206,13.816-0.442l84.805-39.45
	c4.77-2.184,9.326-7.749,9.326-12.995V94.965c0-5.184-2.038-11.229-6.724-13.447l-87.407-40.342
	C146.661,39.469,140.435,39.492,136.819,41.176z"/>
<path class="st0" d="M142.857,57.624L72.189,89.746c-1.026,0.466-1.034,1.921-0.013,2.399l71.354,32.769
	c0.441,0.207,0.951,0.208,1.394,0.005l69.955-32.781c1.028-0.473,1.025-1.934-0.005-2.402l-70.645-32.111
	C143.792,57.426,143.293,57.426,142.857,57.624z"/>
<path class="st0" d="M58.697,112.196v77.138c0,1.56,0.9,2.98,2.31,3.647l65.892,31.149c2.676,1.265,5.758-0.687,5.758-3.647v-77.138
	c0-1.56-0.9-2.98-2.31-3.647l-65.892-31.149C61.78,107.283,58.697,109.236,58.697,112.196z"/>
<path class="st0" d="M228.133,112.196v77.138c0,1.56-0.9,2.98-2.31,3.647l-65.892,31.149c-2.676,1.265-5.758-0.687-5.758-3.647
	v-77.138c0-1.56,0.9-2.98,2.31-3.647l65.892-31.149C225.051,107.283,228.133,109.236,228.133,112.196z"/>
</svg>
